<?xml version="1.0" encoding="utf-8"?>
<!-- Generator: Adobe Illustrator 24.1.1, SVG Export Plug-In . SVG Version: 6.00 Build 0)  -->
<svg version="1.1" id="圖層_1" xmlns="http://www.w3.org/2000/svg" xmlns:xlink="http://www.w3.org/1999/xlink" x="0px" y="0px"
	 viewBox="0 0 416.4796753 64.3603745" style="enable-background:new 0 0 416.4796753 64.3603745;" xml:space="preserve">
<style type="text/css">
	.st0{fill:#00FF2A;}
	.st1{fill:#00A6FF;}
	.st2{fill:#F6FF00;}
	.st3{fill:#FFFFFF;}
</style>
<polygon class="st0" points="64.3603745,0.0000097 0,0.0000097 0,21.4534969 21.4534893,21.4534969 21.4534893,42.9069405 "/>
<rect x="21.4534779" y="42.9069252" class="st0" width="21.4534588" height="21.4534416"/>
<polygon class="st1" points="116.1536484,-0.0000134 85.8138657,-0.0000134 42.9069328,42.9069176 73.2467117,42.9069176 "/>
<polygon class="st2" points="125.0399399,64.3603592 103.5864944,42.9069176 73.2467117,42.9069176 94.7001572,64.3603592 "/>
<path id="path913_1_" class="st3" d="M382.4576111-0.0000134c-21.2702026,0-34.0203247,14.3196163-34.0203247,31.9839783
	s12.7501221,31.9839802,34.0203247,31.9839802c21.2701416,0,34.0220642-14.319622,34.0220642-31.9839802
	c0-2.1410294-0.197876-4.2281494-0.566803-6.2503567h-35.3788452v12.5007019h22.4594727
	c-2.5244446,7.6923752-9.8171082,13.2329216-20.5358887,13.2329216c-13.453949,0-21.5196228-8.7234917-21.5196228-19.4832668
	c0-10.7597446,8.0656738-19.4815369,21.5196228-19.4815369c7.0694885,0,13.1462097,2.3361588,17.5657654,7.5700159
	l11.0863037-6.3985071C404.4559326,4.2989082,394.0074768-0.0000134,382.4576111-0.0000134L382.4576111-0.0000134z"/>
<path id="path915_1_" class="st3" d="M147.2406158,0.7287345v12.5024376h23.0786743v50.0080261h12.5024261V13.2311726h16.5046082
	l12.5024414-12.5024376C211.8287659,0.7287349,147.2406158,0.7287349,147.2406158,0.7287345z"/>
<path id="path917_1_" class="st3" d="M215.3157501,0.7287345v62.5104637h12.5024261V43.8076363l7.1909943-7.1875954
	l23.9453583,26.6191559H275.77948l-31.9305878-35.4588699l27.0498199-27.0515862h-17.6794434l-25.4011078,27.003355V0.7287345
	H215.3157501z"/>
<path id="path919_1_" class="st3" d="M281.854126,0.7287345v62.5104637h12.5024109V20.1712246l33.9772644,43.0679626h12.5024414
	V0.7287345h-12.5024414v43.0679932L294.3565369,0.7287345H281.854126z"/>
</svg>
